<mxfile host="app.diagrams.net" modified="2020-09-25T13:46:41.394Z" agent="5.0 (Windows)" etag="4dTrncB19bSyp_m4odgc" version="13.7.5" type="github">
  <diagram id="f7v4GZ4xFy_5opES7VcV" name="Page-1">
    <mxGraphModel dx="1888" dy="1675" grid="1" gridSize="10" guides="1" tooltips="1" connect="1" arrows="1" fold="1" page="1" pageScale="1" pageWidth="850" pageHeight="1100" math="0" shadow="0">
      <root>
        <mxCell id="0" />
        <mxCell id="1" parent="0" />
        <mxCell id="Zlr8nfxPaf666lFWuaiJ-28" value="" style="whiteSpace=wrap;html=1;aspect=fixed;" parent="1" vertex="1">
          <mxGeometry x="-270" y="-180" width="1120" height="1120" as="geometry" />
        </mxCell>
        <mxCell id="Zlr8nfxPaf666lFWuaiJ-31" value="&lt;font style=&quot;font-size: 24px&quot;&gt;Diagrama Pulsador Simple&lt;br&gt;&lt;/font&gt;" style="text;html=1;strokeColor=none;fillColor=none;align=center;verticalAlign=middle;whiteSpace=wrap;rounded=0;fontStyle=5;fontColor=#3333FF;" parent="1" vertex="1">
          <mxGeometry x="100" y="-120" width="380" height="20" as="geometry" />
        </mxCell>
        <mxCell id="Zlr8nfxPaf666lFWuaiJ-32" value="" style="edgeStyle=orthogonalEdgeStyle;rounded=0;orthogonalLoop=1;jettySize=auto;html=1;" parent="1" source="Zlr8nfxPaf666lFWuaiJ-34" target="Zlr8nfxPaf666lFWuaiJ-38" edge="1">
          <mxGeometry relative="1" as="geometry" />
        </mxCell>
        <mxCell id="Zlr8nfxPaf666lFWuaiJ-33" value="" style="edgeStyle=orthogonalEdgeStyle;rounded=0;orthogonalLoop=1;jettySize=auto;html=1;" parent="1" source="Zlr8nfxPaf666lFWuaiJ-34" target="Zlr8nfxPaf666lFWuaiJ-36" edge="1">
          <mxGeometry relative="1" as="geometry" />
        </mxCell>
        <mxCell id="Zlr8nfxPaf666lFWuaiJ-34" value="setup" style="rounded=1;whiteSpace=wrap;html=1;fillColor=#f5f5f5;strokeColor=#666666;fontColor=#333333;" parent="1" vertex="1">
          <mxGeometry x="240" y="60" width="120" height="60" as="geometry" />
        </mxCell>
        <mxCell id="Zlr8nfxPaf666lFWuaiJ-35" value="" style="edgeStyle=orthogonalEdgeStyle;rounded=0;orthogonalLoop=1;jettySize=auto;html=1;" parent="1" source="Zlr8nfxPaf666lFWuaiJ-36" target="Zlr8nfxPaf666lFWuaiJ-43" edge="1">
          <mxGeometry relative="1" as="geometry" />
        </mxCell>
        <mxCell id="Zlr8nfxPaf666lFWuaiJ-36" value="loop" style="rounded=1;whiteSpace=wrap;html=1;fillColor=#f5f5f5;strokeColor=#666666;fontColor=#333333;" parent="1" vertex="1">
          <mxGeometry x="240" y="190" width="120" height="60" as="geometry" />
        </mxCell>
        <mxCell id="Zlr8nfxPaf666lFWuaiJ-37" value="" style="edgeStyle=orthogonalEdgeStyle;rounded=0;orthogonalLoop=1;jettySize=auto;html=1;" parent="1" source="Zlr8nfxPaf666lFWuaiJ-38" target="Zlr8nfxPaf666lFWuaiJ-40" edge="1">
          <mxGeometry relative="1" as="geometry" />
        </mxCell>
        <mxCell id="Zlr8nfxPaf666lFWuaiJ-38" value="&lt;div&gt;Definition de 2 pins de salida&lt;br&gt;&lt;/div&gt;" style="rounded=1;whiteSpace=wrap;html=1;fillColor=#e1d5e7;strokeColor=#9673a6;" parent="1" vertex="1">
          <mxGeometry x="440" y="60" width="120" height="60" as="geometry" />
        </mxCell>
        <mxCell id="Zlr8nfxPaf666lFWuaiJ-39" style="edgeStyle=orthogonalEdgeStyle;rounded=0;orthogonalLoop=1;jettySize=auto;html=1;" parent="1" source="Zlr8nfxPaf666lFWuaiJ-40" edge="1">
          <mxGeometry relative="1" as="geometry">
            <mxPoint x="300" y="160" as="targetPoint" />
            <Array as="points">
              <mxPoint x="690" y="160" />
            </Array>
          </mxGeometry>
        </mxCell>
        <mxCell id="Zlr8nfxPaf666lFWuaiJ-40" value="definicion de un pin de entrada" style="rounded=1;whiteSpace=wrap;html=1;fillColor=#e1d5e7;strokeColor=#9673a6;" parent="1" vertex="1">
          <mxGeometry x="630" y="60" width="120" height="60" as="geometry" />
        </mxCell>
        <mxCell id="Zlr8nfxPaf666lFWuaiJ-41" value="" style="edgeStyle=orthogonalEdgeStyle;rounded=0;orthogonalLoop=1;jettySize=auto;html=1;" parent="1" source="Zlr8nfxPaf666lFWuaiJ-43" target="Zlr8nfxPaf666lFWuaiJ-45" edge="1">
          <mxGeometry relative="1" as="geometry" />
        </mxCell>
        <mxCell id="Zlr8nfxPaf666lFWuaiJ-42" value="" style="edgeStyle=orthogonalEdgeStyle;rounded=0;orthogonalLoop=1;jettySize=auto;html=1;" parent="1" source="Zlr8nfxPaf666lFWuaiJ-43" target="Zlr8nfxPaf666lFWuaiJ-49" edge="1">
          <mxGeometry relative="1" as="geometry" />
        </mxCell>
        <mxCell id="fwhDwbp8O9f89K-vkZar-1" style="edgeStyle=orthogonalEdgeStyle;rounded=0;orthogonalLoop=1;jettySize=auto;html=1;entryX=0;entryY=0.5;entryDx=0;entryDy=0;" edge="1" parent="1" source="Zlr8nfxPaf666lFWuaiJ-43" target="Zlr8nfxPaf666lFWuaiJ-36">
          <mxGeometry relative="1" as="geometry">
            <mxPoint x="230" y="220" as="targetPoint" />
            <Array as="points">
              <mxPoint x="300" y="540" />
              <mxPoint x="-200" y="540" />
              <mxPoint x="-200" y="220" />
            </Array>
          </mxGeometry>
        </mxCell>
        <mxCell id="Zlr8nfxPaf666lFWuaiJ-43" value="pulsador" style="rounded=1;whiteSpace=wrap;html=1;fillColor=#dae8fc;strokeColor=#6c8ebf;" parent="1" vertex="1">
          <mxGeometry x="240" y="320" width="120" height="60" as="geometry" />
        </mxCell>
        <mxCell id="Zlr8nfxPaf666lFWuaiJ-44" value="" style="edgeStyle=orthogonalEdgeStyle;rounded=0;orthogonalLoop=1;jettySize=auto;html=1;" parent="1" source="Zlr8nfxPaf666lFWuaiJ-45" target="Zlr8nfxPaf666lFWuaiJ-47" edge="1">
          <mxGeometry relative="1" as="geometry" />
        </mxCell>
        <mxCell id="Zlr8nfxPaf666lFWuaiJ-45" value="pulsado: 0" style="rounded=1;whiteSpace=wrap;html=1;fillColor=#d5e8d4;strokeColor=#82b366;" parent="1" vertex="1">
          <mxGeometry x="440" y="320" width="120" height="60" as="geometry" />
        </mxCell>
        <mxCell id="Zlr8nfxPaf666lFWuaiJ-46" value="" style="edgeStyle=orthogonalEdgeStyle;rounded=0;orthogonalLoop=1;jettySize=auto;html=1;" parent="1" source="Zlr8nfxPaf666lFWuaiJ-47" target="Zlr8nfxPaf666lFWuaiJ-53" edge="1">
          <mxGeometry relative="1" as="geometry" />
        </mxCell>
        <mxCell id="Zlr8nfxPaf666lFWuaiJ-47" value="led 1: on" style="rounded=1;whiteSpace=wrap;html=1;fillColor=#ffe6cc;strokeColor=#d79b00;" parent="1" vertex="1">
          <mxGeometry x="640" y="320" width="120" height="60" as="geometry" />
        </mxCell>
        <mxCell id="Zlr8nfxPaf666lFWuaiJ-48" value="" style="edgeStyle=orthogonalEdgeStyle;rounded=0;orthogonalLoop=1;jettySize=auto;html=1;" parent="1" source="Zlr8nfxPaf666lFWuaiJ-49" target="Zlr8nfxPaf666lFWuaiJ-55" edge="1">
          <mxGeometry relative="1" as="geometry" />
        </mxCell>
        <mxCell id="Zlr8nfxPaf666lFWuaiJ-49" value="pulsado: 1" style="rounded=1;whiteSpace=wrap;html=1;fillColor=#d5e8d4;strokeColor=#82b366;" parent="1" vertex="1">
          <mxGeometry x="40" y="320" width="120" height="60" as="geometry" />
        </mxCell>
        <mxCell id="Zlr8nfxPaf666lFWuaiJ-50" style="edgeStyle=orthogonalEdgeStyle;rounded=0;orthogonalLoop=1;jettySize=auto;html=1;" parent="1" source="Zlr8nfxPaf666lFWuaiJ-51" edge="1">
          <mxGeometry relative="1" as="geometry">
            <mxPoint x="240" y="220" as="targetPoint" />
            <Array as="points">
              <mxPoint x="-100" y="540" />
              <mxPoint x="-200" y="540" />
              <mxPoint x="-200" y="220" />
            </Array>
          </mxGeometry>
        </mxCell>
        <mxCell id="Zlr8nfxPaf666lFWuaiJ-51" value="led 2: on" style="rounded=1;whiteSpace=wrap;html=1;fillColor=#f8cecc;strokeColor=#b85450;" parent="1" vertex="1">
          <mxGeometry x="-160" y="440" width="120" height="60" as="geometry" />
        </mxCell>
        <mxCell id="Zlr8nfxPaf666lFWuaiJ-52" style="edgeStyle=orthogonalEdgeStyle;rounded=0;orthogonalLoop=1;jettySize=auto;html=1;entryX=0;entryY=0.5;entryDx=0;entryDy=0;" parent="1" source="Zlr8nfxPaf666lFWuaiJ-53" target="Zlr8nfxPaf666lFWuaiJ-36" edge="1">
          <mxGeometry relative="1" as="geometry">
            <Array as="points">
              <mxPoint x="700" y="540" />
              <mxPoint x="-200" y="540" />
              <mxPoint x="-200" y="220" />
            </Array>
          </mxGeometry>
        </mxCell>
        <mxCell id="Zlr8nfxPaf666lFWuaiJ-53" value="led 2: off" style="rounded=1;whiteSpace=wrap;html=1;fillColor=#f8cecc;strokeColor=#b85450;" parent="1" vertex="1">
          <mxGeometry x="640" y="440" width="120" height="60" as="geometry" />
        </mxCell>
        <mxCell id="Zlr8nfxPaf666lFWuaiJ-54" value="" style="edgeStyle=orthogonalEdgeStyle;rounded=0;orthogonalLoop=1;jettySize=auto;html=1;" parent="1" source="Zlr8nfxPaf666lFWuaiJ-55" target="Zlr8nfxPaf666lFWuaiJ-51" edge="1">
          <mxGeometry relative="1" as="geometry" />
        </mxCell>
        <mxCell id="Zlr8nfxPaf666lFWuaiJ-55" value="led 1: off" style="rounded=1;whiteSpace=wrap;html=1;fillColor=#ffe6cc;strokeColor=#d79b00;" parent="1" vertex="1">
          <mxGeometry x="-160" y="320" width="120" height="60" as="geometry" />
        </mxCell>
      </root>
    </mxGraphModel>
  </diagram>
</mxfile>
